<svg version="1.1" xmlns="http://www.w3.org/2000/svg" viewBox="0 0 1095.6666564941406 607.3333282470703" width="3286.999969482422" height="1821.999984741211">
  <!-- svg-source:excalidraw -->
  
  <defs>
    <style class="style-fonts">
      @font-face {
        font-family: "Virgil";
        src: url("https://excalidraw.com/Virgil.woff2");
      }
      @font-face {
        font-family: "Cascadia";
        src: url("https://excalidraw.com/Cascadia.woff2");
      }
    </style>
  </defs>
  <rect x="0" y="0" width="1095.6666564941406" height="607.3333282470703" fill="#ffffff"></rect><g stroke-linecap="round" transform="translate(305.9999694824219 10) rotate(0 236 293.66666412353516)"><path d="M-0.93 -0.39 C163.38 -2.34, 330.92 -1.91, 471.32 0.35 M-0.77 -0.38 C184.59 1.82, 370.14 1.73, 472.67 0.18 M471.26 0.93 C477.06 121.88, 476.24 244.02, 470.81 586.47 M472.77 -0.73 C475.9 198.36, 476.25 395.41, 472.76 587.56 M471.94 586.83 C337.09 589.3, 201.35 590.97, -1.6 588.6 M472.3 587.79 C338.52 584.21, 204.94 585.17, 0.49 587.86 M-0.85 588.37 C1.09 451.59, 0.05 312.52, -1.01 0.7 M0.4 586.96 C-0.67 422.84, -0.82 256.69, 0.06 -0.59" stroke="#000000" stroke-width="1" fill="none"></path></g><g stroke-linecap="round"><g transform="translate(308.0000305175781 97.33332824707031) rotate(0 234.1752067074459 0.20533680768683382)"><path d="M0.59 -0.56 C78.76 -0.31, 390.8 0.24, 468.9 0.5 M-0.55 1.76 C77.43 1.73, 389.58 -0.93, 467.73 -1.35" stroke="#000000" stroke-width="1" fill="none"></path></g></g><mask></mask><g stroke-linecap="round"><g transform="translate(308.6665954589844 362.66664123535156) rotate(0 235.3681637134403 -0.01285380504356226)"><path d="M-1.1 -0.76 C77.66 -0.53, 392.87 0.24, 471.83 0.42 M0.53 1.46 C79.18 1.4, 392.18 -1.54, 470.8 -1.48" stroke="#000000" stroke-width="1" fill="none"></path></g></g><mask></mask><g stroke-linecap="round" transform="translate(347.3332824707031 384.00001525878906) rotate(0 197.33331298828125 25.33331298828125)"><path d="M0.58 0.67 C97.61 0.88, 194.59 0.54, 394.7 -0.86 M0.11 -0.11 C114.2 1.07, 228.46 1.58, 394.4 0.27 M395.43 0.88 C395.7 15.05, 396.71 32.57, 394.49 52.58 M395.61 -0.83 C393.44 12.68, 394.11 23.77, 395.09 51.33 M394.72 51.39 C293.38 50.09, 193.06 49.21, 0.43 50.41 M394.24 50.5 C312.91 50.77, 232.24 50.57, 0.19 50.2 M0.57 52.39 C-1.03 32.99, -0.6 18.75, 0.3 -1.97 M-0.42 50.78 C0.46 32.02, -0.36 10.73, -0.51 -0.43" stroke="#000000" stroke-width="1" fill="none"></path></g><g stroke-linecap="round" transform="translate(336.6666564941406 22) rotate(0 27.666671752929688 27.666671752929688)"><path d="M23.46 0.97 C28.78 -0.28, 36.75 0.61, 41.83 3.67 C46.9 6.73, 51.88 13.59, 53.9 19.31 C55.93 25.04, 56.17 32.53, 53.98 38.03 C51.79 43.53, 46.29 49.47, 40.76 52.34 C35.23 55.2, 26.55 56.6, 20.78 55.21 C15.01 53.83, 9.61 48.73, 6.16 44.02 C2.71 39.3, -0.21 32.67, 0.08 26.93 C0.38 21.2, 3.41 13.95, 7.93 9.61 C12.45 5.27, 23.44 2.27, 27.21 0.91 C30.97 -0.45, 30.52 1.13, 30.51 1.45 M34.07 1.88 C39.21 2.73, 45.81 5.95, 49.17 10.86 C52.53 15.78, 54.51 25.15, 54.25 31.38 C53.99 37.62, 51.82 44.19, 47.62 48.26 C43.43 52.34, 35.11 55.7, 29.09 55.84 C23.07 55.98, 16.04 52.52, 11.5 49.09 C6.96 45.65, 3.49 40.58, 1.85 35.24 C0.21 29.89, -0.79 22.53, 1.64 17.03 C4.07 11.53, 10.6 4.76, 16.4 2.22 C22.21 -0.32, 33.16 1.74, 36.46 1.79 C39.77 1.84, 36.71 2.2, 36.22 2.53" stroke="#000000" stroke-width="1" fill="none"></path></g><g stroke-linecap="round" transform="translate(403.9999694824219 24) rotate(0 84.33334350585938 9.666664123535156)"><path d="M0.89 1.25 C39.08 1.89, 77.34 0.45, 168.9 1.88 M1 -0.37 C61.55 -1.86, 123.04 -1.08, 168.44 -0.73 M167.97 -0.47 C168.06 4.44, 170.53 10.05, 167.85 17.96 M168.01 0.72 C168.1 7.32, 169.39 14.09, 167.96 19.07 M168.92 20.77 C117.18 19.78, 67.82 19.54, 0.75 17.85 M168.68 18.57 C129.58 19.24, 90.87 19.16, 0.5 18.59 M-0.3 18.76 C-1.58 11.14, -1.12 5.92, 0.61 -1.48 M0.65 19.05 C0.5 14.25, 0.64 11.13, 0.45 -0.69" stroke="#000000" stroke-width="1" fill="none"></path></g><g stroke-linecap="round" transform="translate(426.6665954589844 54) rotate(0 55.666656494140625 6.380760549019115)"><path d="M1.44 -1.26 C25.98 0.01, 54.54 -1.61, 112.73 0.36 M0.35 0.28 C36.04 -1.72, 71.64 -1.3, 111.97 -0.78 M112.47 -0.8 C110.22 4.23, 110.96 7, 110.78 13.28 M110.98 0.23 C111.04 3.27, 111.75 6.74, 111.31 12.21 M109.37 14.66 C76.81 11.09, 45.52 13.47, 1.3 13.04 M111.35 13.75 C78.12 12.08, 45.69 12.1, -0.38 13.49 M0.37 11.52 C0.41 8.63, -0.69 5.97, -0.82 -0.45 M-0.02 12.6 C-0.17 8.81, 0.37 3.59, -0.59 0.45" stroke="#000000" stroke-width="1" fill="none"></path></g><g stroke-linecap="round" transform="translate(358.6665954589844 447.9999542236328) rotate(0 182.99996948242188 11)"><path d="M-0.45 -0.89 C139.28 -1.74, 276.87 -0.61, 365.98 0.71 M-0.58 -0.55 C94.49 2.47, 188.41 2.31, 365.82 -0.26 M365.08 0.97 C365.12 6.91, 366.32 10.71, 366.09 23.31 M366.08 -0.38 C365.19 8.45, 365.66 17.04, 365.82 22.46 M365.27 20.89 C276.54 24.68, 189.2 24.32, 0.32 22.4 M366.48 21.71 C224.43 21.68, 83.11 21.37, 0.54 22.54 M-1.9 22.43 C0.92 14.85, -0.34 5.92, -0.52 0.03 M0.6 21.82 C1.16 15.66, -0.01 10.72, -0.05 -0.86" stroke="#000000" stroke-width="1" fill="none"></path></g><g stroke-linecap="round" transform="translate(374.0000305175781 485.9999542236328) rotate(0 168.33334350585938 17.5)"><path d="M0.83 -0.34 C80.88 -0.81, 159.59 1.22, 336.35 0.58 M-0.46 -0.21 C73.22 -1.22, 146.21 -2, 336.44 -0.29 M338.44 1.89 C337.05 9.92, 337.03 23.38, 337.73 34.89 M336.04 -0.54 C336.94 10.88, 336.81 21.53, 337.09 34.49 M336.13 34.12 C219.42 35.5, 102.3 34.9, -1.26 35.67 M336.37 34.43 C246.91 34.12, 157.02 33.88, -0.16 34.44 M-1.12 36.63 C-1.7 24.79, 1.44 15.63, -0.21 -1.33 M0.41 35.71 C0.5 24.81, -0.93 15.64, 0.89 0.43" stroke="#000000" stroke-width="1" fill="none"></path></g><g stroke-linecap="round" transform="translate(588.6667175292969 529.3332672119141) rotate(0 75.3333740234375 24.66668701171875)"><path d="M12.33 0 M12.33 0 C57.51 1.21, 99.18 1.25, 138.33 0 M12.33 0 C51.92 0.81, 93.83 0.72, 138.33 0 M138.33 0 C147.04 0.9, 151.07 2.5, 150.67 12.33 M138.33 0 C145.86 -0.41, 152.48 5.8, 150.67 12.33 M150.67 12.33 C150.73 21.07, 148.78 30.04, 150.67 37 M150.67 12.33 C150.19 20.38, 151.29 29.8, 150.67 37 M150.67 37 C149.6 47.12, 146.9 50.68, 138.33 49.33 M150.67 37 C151.33 46.01, 146.07 49.39, 138.33 49.33 M138.33 49.33 C92.86 47.43, 47.62 47.53, 12.33 49.33 M138.33 49.33 C103.05 51.11, 65.27 49.69, 12.33 49.33 M12.33 49.33 C3.97 48.02, -1.52 45.87, 0 37 M12.33 49.33 C2.21 47.37, 1.08 45.77, 0 37 M0 37 C1.33 31.76, -1.18 24.13, 0 12.33 M0 37 C-0.24 29.51, -0.1 22.85, 0 12.33 M0 12.33 C-1.23 5.84, 2.88 1.71, 12.33 0 M0 12.33 C1.97 5.65, 2.15 1.68, 12.33 0" stroke="#000000" stroke-width="1" fill="none"></path></g><g stroke-linecap="round"><g transform="translate(151.3333435058595 64.0413049610375) rotate(0 74.15555692481803 -0.8881521316179288)"><path d="M-0.06 0.08 C24.87 -0.1, 124.86 0.18, 149.87 -0.19 M-1.55 -0.92 C23.18 -1.51, 123.72 -1.79, 148.85 -1.86" stroke="#000000" stroke-width="1" fill="none"></path></g><g transform="translate(151.3333435058595 64.0413049610375) rotate(0 74.15555692481803 -0.8881521316179288)"><path d="M120.82 8.27 C131.2 5.11, 137.15 3.4, 150.78 -0.85 M120.01 8.02 C132.06 4.49, 142.39 0.79, 149.52 -1.88" stroke="#000000" stroke-width="1" fill="none"></path></g><g transform="translate(151.3333435058595 64.0413049610375) rotate(0 74.15555692481803 -0.8881521316179288)"><path d="M120.76 -12.25 C131.31 -8.74, 137.28 -3.78, 150.78 -0.85 M119.95 -12.5 C132.16 -8.21, 142.51 -4.1, 149.52 -1.88" stroke="#000000" stroke-width="1" fill="none"></path></g></g><mask></mask><g transform="translate(12 49.05675811994536) rotate(0 57.5 12.5)"><text x="0" y="18" font-family="Virgil, Segoe UI Emoji" font-size="20px" fill="#000000" text-anchor="start" style="white-space: pre;" direction="ltr">Box Header</text></g><g stroke-linecap="round"><g transform="translate(129.6666259765625 218.94705695763173) rotate(0 84.33080481889658 -0.4899106520119858)"><path d="M0.36 0.04 C28.52 -0.25, 141.39 -1.1, 169.56 -1.11 M-0.9 -0.98 C27.09 -1.17, 140.62 0.31, 168.91 0.12" stroke="#000000" stroke-width="1" fill="none"></path></g><g transform="translate(129.6666259765625 218.94705695763173) rotate(0 84.33080481889658 -0.4899106520119858)"><path d="M140.75 11.2 C149.56 7.31, 161.25 3.63, 170.1 -0.82 M140.63 9.67 C151.28 6.22, 162.39 3.22, 168.04 0.45" stroke="#000000" stroke-width="1" fill="none"></path></g><g transform="translate(129.6666259765625 218.94705695763173) rotate(0 84.33080481889658 -0.4899106520119858)"><path d="M140.83 -9.32 C149.72 -6.01, 161.38 -2.5, 170.1 -0.82 M140.72 -10.85 C151.16 -6.18, 162.24 -1.05, 168.04 0.45" stroke="#000000" stroke-width="1" fill="none"></path></g></g><mask></mask><g transform="translate(10 206.33334350585938) rotate(0 53.5 12.5)"><text x="0" y="18" font-family="Virgil, Segoe UI Emoji" font-size="20px" fill="#000000" text-anchor="start" style="white-space: pre;" direction="ltr">Box Image</text></g><g stroke-linecap="round"><g transform="translate(959.3333435058594 403.58124862187606) rotate(0 -89.40324089405124 -1.4003484556598664)"><path d="M0.4 0.03 C-29.52 -0.03, -148.44 -0.84, -178.4 -0.91 M-0.84 -1.01 C-31 -1.39, -149.27 -2.62, -179.21 -2.83" stroke="#000000" stroke-width="1" fill="none"></path></g><g transform="translate(959.3333435058594 403.58124862187606) rotate(0 -89.40324089405124 -1.4003484556598664)"><path d="M-150.89 -12.39 C-161.53 -9.92, -171.86 -3.63, -178.68 -2.69 M-150.53 -13.74 C-162.35 -8.8, -174.18 -5.19, -180.07 -2.79" stroke="#000000" stroke-width="1" fill="none"></path></g><g transform="translate(959.3333435058594 403.58124862187606) rotate(0 -89.40324089405124 -1.4003484556598664)"><path d="M-151.07 8.13 C-161.55 2.48, -171.8 0.64, -178.68 -2.69 M-150.71 6.78 C-162.63 3.57, -174.39 -0.97, -180.07 -2.79" stroke="#000000" stroke-width="1" fill="none"></path></g></g><mask></mask><g transform="translate(960.6666564941406 388.33331298828125) rotate(0 62.5 12.5)"><text x="0" y="18" font-family="Virgil, Segoe UI Emoji" font-size="20px" fill="#000000" text-anchor="start" style="white-space: pre;" direction="ltr">Box Content</text></g><g stroke-linecap="round"><g transform="translate(924.0000915527344 548.5387570792982) rotate(0 -95.03796402551234 1.8687140759117256)"><path d="M0.64 1.1 C-31.16 1.59, -158.86 3.11, -190.71 3.1 M-0.49 0.63 C-31.91 0.78, -156.54 1.29, -188.37 1.49" stroke="#000000" stroke-width="1" fill="none"></path></g><g transform="translate(924.0000915527344 548.5387570792982) rotate(0 -95.03796402551234 1.8687140759117256)"><path d="M-158.4 -10.1 C-167.24 -6.33, -179.25 -2.44, -188.18 2.94 M-159.66 -8.71 C-170.84 -4.5, -180.82 -0.72, -189.31 2.18" stroke="#000000" stroke-width="1" fill="none"></path></g><g transform="translate(924.0000915527344 548.5387570792982) rotate(0 -95.03796402551234 1.8687140759117256)"><path d="M-158.29 10.43 C-167.2 7.89, -179.24 5.47, -188.18 2.94 M-159.56 11.82 C-170.83 8.28, -180.85 4.33, -189.31 2.18" stroke="#000000" stroke-width="1" fill="none"></path></g></g><mask></mask><g transform="translate(939.3332824707031 530.3333129882812) rotate(0 54 12.5)"><text x="0" y="18" font-family="Virgil, Segoe UI Emoji" font-size="20px" fill="#000000" text-anchor="start" style="white-space: pre;" direction="ltr">Box Action</text></g><g stroke-linecap="round" transform="translate(744.6667175292969 55.99998474121094) rotate(0 3.33331298828125 3)"><path d="M6.67 3 C6.67 3.17, 6.65 3.35, 6.62 3.52 C6.58 3.69, 6.53 3.86, 6.47 4.03 C6.4 4.19, 6.32 4.35, 6.22 4.5 C6.12 4.65, 6.01 4.8, 5.89 4.93 C5.76 5.06, 5.62 5.19, 5.48 5.3 C5.33 5.41, 5.17 5.51, 5 5.6 C4.83 5.68, 4.65 5.76, 4.47 5.82 C4.29 5.88, 4.1 5.92, 3.91 5.95 C3.72 5.98, 3.53 6, 3.33 6 C3.14 6, 2.94 5.98, 2.75 5.95 C2.56 5.92, 2.37 5.88, 2.19 5.82 C2.01 5.76, 1.83 5.68, 1.67 5.6 C1.5 5.51, 1.34 5.41, 1.19 5.3 C1.04 5.19, 0.9 5.06, 0.78 4.93 C0.66 4.8, 0.54 4.65, 0.45 4.5 C0.35 4.35, 0.27 4.19, 0.2 4.03 C0.14 3.86, 0.08 3.69, 0.05 3.52 C0.02 3.35, 0 3.17, 0 3 C0 2.83, 0.02 2.65, 0.05 2.48 C0.08 2.31, 0.14 2.14, 0.2 1.97 C0.27 1.81, 0.35 1.65, 0.45 1.5 C0.54 1.35, 0.66 1.2, 0.78 1.07 C0.9 0.94, 1.04 0.81, 1.19 0.7 C1.34 0.59, 1.5 0.49, 1.67 0.4 C1.83 0.32, 2.01 0.24, 2.19 0.18 C2.37 0.12, 2.56 0.08, 2.75 0.05 C2.94 0.02, 3.14 0, 3.33 0 C3.53 0, 3.72 0.02, 3.91 0.05 C4.1 0.08, 4.29 0.12, 4.47 0.18 C4.65 0.24, 4.83 0.32, 5 0.4 C5.17 0.49, 5.33 0.59, 5.48 0.7 C5.62 0.81, 5.76 0.94, 5.89 1.07 C6.01 1.2, 6.12 1.35, 6.22 1.5 C6.32 1.65, 6.4 1.81, 6.47 1.97 C6.53 2.14, 6.58 2.31, 6.62 2.48 C6.65 2.65, 6.66 2.91, 6.67 3 C6.68 3.09, 6.68 2.91, 6.67 3" stroke="#000000" stroke-width="1" fill="none"></path></g><g stroke-linecap="round" transform="translate(745.3334655761719 43.99998474121094) rotate(0 3.33331298828125 3)"><path d="M6.67 3 C6.67 3.17, 6.65 3.35, 6.62 3.52 C6.58 3.69, 6.53 3.86, 6.47 4.03 C6.4 4.19, 6.32 4.35, 6.22 4.5 C6.12 4.65, 6.01 4.8, 5.89 4.93 C5.76 5.06, 5.62 5.19, 5.48 5.3 C5.33 5.41, 5.17 5.51, 5 5.6 C4.83 5.68, 4.65 5.76, 4.47 5.82 C4.29 5.88, 4.1 5.92, 3.91 5.95 C3.72 5.98, 3.53 6, 3.33 6 C3.14 6, 2.94 5.98, 2.75 5.95 C2.56 5.92, 2.37 5.88, 2.19 5.82 C2.01 5.76, 1.83 5.68, 1.67 5.6 C1.5 5.51, 1.34 5.41, 1.19 5.3 C1.04 5.19, 0.9 5.06, 0.78 4.93 C0.66 4.8, 0.54 4.65, 0.45 4.5 C0.35 4.35, 0.27 4.19, 0.2 4.03 C0.14 3.86, 0.08 3.69, 0.05 3.52 C0.02 3.35, 0 3.17, 0 3 C0 2.83, 0.02 2.65, 0.05 2.48 C0.08 2.31, 0.14 2.14, 0.2 1.97 C0.27 1.81, 0.35 1.65, 0.45 1.5 C0.54 1.35, 0.66 1.2, 0.78 1.07 C0.9 0.94, 1.04 0.81, 1.19 0.7 C1.34 0.59, 1.5 0.49, 1.67 0.4 C1.83 0.32, 2.01 0.24, 2.19 0.18 C2.37 0.12, 2.56 0.08, 2.75 0.05 C2.94 0.02, 3.14 0, 3.33 0 C3.53 0, 3.72 0.02, 3.91 0.05 C4.1 0.08, 4.29 0.12, 4.47 0.18 C4.65 0.24, 4.83 0.32, 5 0.4 C5.17 0.49, 5.33 0.59, 5.48 0.7 C5.62 0.81, 5.76 0.94, 5.89 1.07 C6.01 1.2, 6.12 1.35, 6.22 1.5 C6.32 1.65, 6.4 1.81, 6.47 1.97 C6.53 2.14, 6.58 2.31, 6.62 2.48 C6.65 2.65, 6.66 2.91, 6.67 3 C6.68 3.09, 6.68 2.91, 6.67 3" stroke="#000000" stroke-width="1" fill="none"></path></g><g stroke-linecap="round" transform="translate(745.3334655761719 29.999984741210938) rotate(0 3.33331298828125 3)"><path d="M6.67 3 C6.67 3.17, 6.65 3.35, 6.62 3.52 C6.58 3.69, 6.53 3.86, 6.47 4.03 C6.4 4.19, 6.32 4.35, 6.22 4.5 C6.12 4.65, 6.01 4.8, 5.89 4.93 C5.76 5.06, 5.62 5.19, 5.48 5.3 C5.33 5.41, 5.17 5.51, 5 5.6 C4.83 5.68, 4.65 5.76, 4.47 5.82 C4.29 5.88, 4.1 5.92, 3.91 5.95 C3.72 5.98, 3.53 6, 3.33 6 C3.14 6, 2.94 5.98, 2.75 5.95 C2.56 5.92, 2.37 5.88, 2.19 5.82 C2.01 5.76, 1.83 5.68, 1.67 5.6 C1.5 5.51, 1.34 5.41, 1.19 5.3 C1.04 5.19, 0.9 5.06, 0.78 4.93 C0.66 4.8, 0.54 4.65, 0.45 4.5 C0.35 4.35, 0.27 4.19, 0.2 4.03 C0.14 3.86, 0.08 3.69, 0.05 3.52 C0.02 3.35, 0 3.17, 0 3 C0 2.83, 0.02 2.65, 0.05 2.48 C0.08 2.31, 0.14 2.14, 0.2 1.97 C0.27 1.81, 0.35 1.65, 0.45 1.5 C0.54 1.35, 0.66 1.2, 0.78 1.07 C0.9 0.94, 1.04 0.81, 1.19 0.7 C1.34 0.59, 1.5 0.49, 1.67 0.4 C1.83 0.32, 2.01 0.24, 2.19 0.18 C2.37 0.12, 2.56 0.08, 2.75 0.05 C2.94 0.02, 3.14 0, 3.33 0 C3.53 0, 3.72 0.02, 3.91 0.05 C4.1 0.08, 4.29 0.12, 4.47 0.18 C4.65 0.24, 4.83 0.32, 5 0.4 C5.17 0.49, 5.33 0.59, 5.48 0.7 C5.62 0.81, 5.76 0.94, 5.89 1.07 C6.01 1.2, 6.12 1.35, 6.22 1.5 C6.32 1.65, 6.4 1.81, 6.47 1.97 C6.53 2.14, 6.58 2.31, 6.62 2.48 C6.65 2.65, 6.66 2.91, 6.67 3 C6.68 3.09, 6.68 2.91, 6.67 3" stroke="#000000" stroke-width="1" fill="none"></path></g><g stroke-linecap="round"><g transform="translate(478.6665954589844 154.66664123535156) rotate(0 -35.33332824707031 65.66664123535162)"><path d="M0 0 C-11.78 21.89, -58.89 109.44, -70.67 131.33 M0 0 C-11.78 21.89, -58.89 109.44, -70.67 131.33" stroke="#000000" stroke-width="1" fill="none"></path></g></g><mask></mask><g stroke-linecap="round"><g transform="translate(479.3332824707031 155.33326721191406) rotate(0 41 66.66668701171875)"><path d="M0 0 C13.67 22.22, 68.33 111.11, 82 133.33 M0 0 C13.67 22.22, 68.33 111.11, 82 133.33" stroke="#000000" stroke-width="1" fill="none"></path></g></g><mask></mask><g stroke-linecap="round"><g transform="translate(408.16793407534965 286.58005322434406) rotate(0 76.4580140932834 1.1984884405424054)"><path d="M0 0 C25.49 0.4, 127.43 2, 152.92 2.4 M0 0 C25.49 0.4, 127.43 2, 152.92 2.4" stroke="#000000" stroke-width="1" fill="none"></path></g></g><mask></mask><g stroke-linecap="round" transform="translate(555.040025774166 219.982239253018) rotate(0 33.165454158785565 33.165454158785565)"><path d="M66.33 33.17 C66.33 34.89, 66.19 36.65, 65.92 38.35 C65.65 40.06, 65.24 41.77, 64.71 43.41 C64.17 45.06, 63.5 46.68, 62.72 48.22 C61.93 49.76, 61.01 51.26, 60 52.66 C58.98 54.06, 57.84 55.39, 56.62 56.62 C55.39 57.84, 54.06 58.98, 52.66 60 C51.26 61.01, 49.76 61.93, 48.22 62.72 C46.68 63.5, 45.06 64.17, 43.41 64.71 C41.77 65.24, 40.06 65.65, 38.35 65.92 C36.65 66.19, 34.89 66.33, 33.17 66.33 C31.44 66.33, 29.69 66.19, 27.98 65.92 C26.27 65.65, 24.56 65.24, 22.92 64.71 C21.27 64.17, 19.65 63.5, 18.11 62.72 C16.57 61.93, 15.07 61.01, 13.67 60 C12.27 58.98, 10.94 57.84, 9.71 56.62 C8.49 55.39, 7.35 54.06, 6.33 52.66 C5.32 51.26, 4.4 49.76, 3.61 48.22 C2.83 46.68, 2.16 45.06, 1.62 43.41 C1.09 41.77, 0.68 40.06, 0.41 38.35 C0.14 36.65, 0 34.89, 0 33.17 C0 31.44, 0.14 29.69, 0.41 27.98 C0.68 26.27, 1.09 24.56, 1.62 22.92 C2.16 21.27, 2.83 19.65, 3.61 18.11 C4.4 16.57, 5.32 15.07, 6.33 13.67 C7.35 12.27, 8.49 10.94, 9.71 9.71 C10.94 8.49, 12.27 7.35, 13.67 6.33 C15.07 5.32, 16.57 4.4, 18.11 3.61 C19.65 2.83, 21.27 2.16, 22.92 1.62 C24.56 1.09, 26.27 0.68, 27.98 0.41 C29.69 0.14, 31.44 0, 33.17 0 C34.89 0, 36.65 0.14, 38.35 0.41 C40.06 0.68, 41.77 1.09, 43.41 1.62 C45.06 2.16, 46.68 2.83, 48.22 3.61 C49.76 4.4, 51.26 5.32, 52.66 6.33 C54.06 7.35, 55.39 8.49, 56.62 9.71 C57.84 10.94, 58.98 12.27, 60 13.67 C61.01 15.07, 61.93 16.57, 62.72 18.11 C63.5 19.65, 64.17 21.27, 64.71 22.92 C65.24 24.56, 65.65 26.27, 65.92 27.98 C66.19 29.69, 66.26 32.3, 66.33 33.17 C66.4 34.03, 66.4 32.3, 66.33 33.17" stroke="#000000" stroke-width="1" fill="none"></path></g></svg>